<?xml version="1.0" encoding="utf-8"?>
<!-- Generator: Adobe Illustrator 17.0.1, SVG Export Plug-In . SVG Version: 6.00 Build 0)  -->
<!DOCTYPE svg PUBLIC "-//W3C//DTD SVG 1.1//EN" "http://www.w3.org/Graphics/SVG/1.1/DTD/svg11.dtd">
<svg version="1.1" id="Слой_1" xmlns="http://www.w3.org/2000/svg" xmlns:xlink="http://www.w3.org/1999/xlink" x="0px" y="0px"
	 width="127.2861328px" height="38.4296875px" viewBox="0 0 127.2861328 38.4296875"
	 enable-background="new 0 0 127.2861328 38.4296875" xml:space="preserve">
<g>
	<path fill="#FFFFFF" d="M1.8798828,32.4736328V7.5253906h16.7041016v4.7163086H7.4960938v5.2197266h9.8637695v4.7163086H7.4960938
		v10.2958984H1.8798828z"/>
	<path fill="#FFFFFF" d="M39.2114258,27.6494141v4.8242188H22.543457V7.5253906h5.6162109v20.1240234H39.2114258z"/>
	<path fill="#FFFFFF" d="M42.8110352,7.5253906h5.6162109v24.9482422h-5.6162109V7.5253906z"/>
	<path fill="#FFFFFF" d="M68.5283203,32.4736328c-0.7011719-1.3896484-1.4707031-2.796875-2.3066406-4.2216797
		c-0.8339844-1.4257813-1.7929688-2.6308594-2.8769531-3.6152344c-0.3359375,0.3710938-0.7597656,0.8867188-1.2753906,1.546875
		s-1.03125,1.3623047-1.5449219,2.1054688c-0.515625,0.7421875-0.9980469,1.5117188-1.4472656,2.3085938
		s-0.7832031,1.4228516-1.0019531,1.8759766h-6.4082031c1.0498047-1.9482422,2.2890625-3.9589844,3.7182617-6.0341797
		c1.4287109-2.0742188,3.0219727-4.2763672,4.7817383-6.6074219L52.0273438,7.5253906h6.8037109L63.5849609,14.75
		l4.8574219-7.2246094h6.4082031l-8.0957031,12.0410156c2.1230469,2.6601563,3.8710938,5.0986328,5.2441406,7.3154297
		c1.3710938,2.2167969,2.4550781,4.0810547,3.2480469,5.5917969H68.5283203z"/>
</g>
<g>
	<g>
		<linearGradient id="SVGID_1_" gradientUnits="userSpaceOnUse" x1="76.1748047" y1="19.963623" x2="126.2861328" y2="19.963623">
			<stop  offset="0" style="stop-color:#FF55A5"/>
			<stop  offset="0.5934188" style="stop-color:#FF5779"/>
			<stop  offset="1" style="stop-color:#FF5860"/>
		</linearGradient>
		<path fill="url(#SVGID_1_)" d="M89.4228516,11.8457031c-2.6162109,0-4.5058594,0.7260742-5.6699219,2.1777344
			c-1.1640625,1.4526367-1.7460938,3.4379883-1.7460938,5.9580078c0,1.2236328,0.1445313,2.3349609,0.4326172,3.3300781
			c0.2871094,0.9960938,0.7197266,1.8544922,1.2958984,2.5742188c0.5751953,0.7197266,1.2958984,1.2783203,2.1591797,1.6738281
			c0.8642578,0.3955078,1.8720703,0.5947266,3.0244141,0.5947266c0.6240234,0,1.1572266-0.0126953,1.6025391-0.0371094
			c0.4433594-0.0234375,0.8330078-0.0722656,1.1699219-0.1435547v-8.6757813h5.6152344v12.3476563
			c-0.671875,0.2646484-1.7519531,0.5458984-3.2392578,0.8457031c-1.4882813,0.2998047-3.3251953,0.4501953-5.5087891,0.4501953
			c-1.8720703,0-3.5693359-0.2880859-5.09375-0.8642578c-1.5244141-0.5751953-2.8261719-1.4150391-3.90625-2.5195313
			c-1.0800781-1.1035156-1.9140625-2.4599609-2.5019531-4.0673828c-0.5878906-1.6083984-0.8818359-3.4443359-0.8818359-5.5087891
			c0-2.0878906,0.3242188-3.9355469,0.9726563-5.5439453c0.6474609-1.6074219,1.5351563-2.9697266,2.6630859-4.0859375
			c1.1279297-1.1157227,2.4541016-1.9619141,3.9785156-2.5380859C85.3125,7.237793,86.9394531,6.949707,88.6669922,6.949707
			c1.1757813,0,2.2373047,0.078125,3.1855469,0.2338867c0.9482422,0.15625,1.7646484,0.3364258,2.4482422,0.5400391
			c0.6845703,0.2041016,1.2480469,0.4140625,1.6923828,0.6298828c0.4433594,0.2163086,0.7617188,0.3842773,0.9541016,0.5039063
			l-1.6201172,4.5c-0.7685547-0.4077148-1.6503906-0.7612305-2.6464844-1.0620117
			C91.6845703,11.9956055,90.5986328,11.8457031,89.4228516,11.8457031z"/>
		<linearGradient id="SVGID_2_" gradientUnits="userSpaceOnUse" x1="76.1748047" y1="19.963623" x2="126.2861328" y2="19.963623">
			<stop  offset="0" style="stop-color:#FF55A5"/>
			<stop  offset="0.5934188" style="stop-color:#FF5779"/>
			<stop  offset="1" style="stop-color:#FF5860"/>
		</linearGradient>
		<path fill="url(#SVGID_2_)" d="M126.2861328,19.9814453c0,2.1367188-0.3183594,4.0146484-0.9541016,5.6337891
			c-0.6357422,1.6210938-1.5058594,2.9765625-2.609375,4.0683594c-1.1044922,1.0927734-2.4179688,1.9140625-3.9423828,2.4658203
			s-3.1621094,0.828125-4.9140625,0.828125c-1.7041016,0-3.3115234-0.2763672-4.8232422-0.828125
			c-1.5126953-0.5517578-2.8330078-1.3730469-3.9609375-2.4658203c-1.1279297-1.0917969-2.015625-2.4472656-2.6630859-4.0683594
			c-0.6484375-1.6191406-0.9726563-3.4970703-0.9726563-5.6337891c0-2.1357422,0.3359375-4.0136719,1.0078125-5.6337891
			s1.578125-2.9819336,2.71875-4.0859375c1.1396484-1.1035156,2.4589844-1.9316406,3.9599609-2.4838867
			c1.4990234-0.5522461,3.078125-0.828125,4.7333984-0.828125c1.7041016,0,3.3125,0.2758789,4.8242188,0.828125
			s2.8320313,1.3803711,3.9599609,2.4838867c1.1279297,1.1040039,2.015625,2.4658203,2.6640625,4.0859375
			S126.2861328,17.8457031,126.2861328,19.9814453z M107.2421875,19.9814453c0,1.2236328,0.1503906,2.3291016,0.4501953,3.3115234
			c0.2998047,0.984375,0.7314453,1.8310547,1.2958984,2.5390625c0.5634766,0.7080078,1.2539063,1.2539063,2.0703125,1.6376953
			c0.8154297,0.3837891,1.7519531,0.5751953,2.8076172,0.5751953c1.0322266,0,1.9619141-0.1914063,2.7900391-0.5751953
			s1.5244141-0.9296875,2.0878906-1.6376953c0.5644531-0.7080078,0.9960938-1.5546875,1.2958984-2.5390625
			c0.2998047-0.9824219,0.4501953-2.0878906,0.4501953-3.3115234s-0.1503906-2.3334961-0.4501953-3.3295898
			c-0.2998047-0.9956055-0.7314453-1.8481445-1.2958984-2.5561523c-0.5634766-0.7075195-1.2597656-1.2539063-2.0878906-1.6381836
			c-0.828125-0.3833008-1.7578125-0.5756836-2.7900391-0.5756836c-1.0556641,0-1.9921875,0.1977539-2.8076172,0.59375
			c-0.8164063,0.3959961-1.5068359,0.9482422-2.0703125,1.65625c-0.5644531,0.7080078-0.9960938,1.5600586-1.2958984,2.5556641
			C107.3925781,17.6835938,107.2421875,18.7817383,107.2421875,19.9814453z"/>
	</g>
</g>
<g>
</g>
<g>
</g>
<g>
</g>
<g>
</g>
<g>
</g>
<g>
</g>
<g>
</g>
<g>
</g>
<g>
</g>
<g>
</g>
<g>
</g>
<g>
</g>
<g>
</g>
<g>
</g>
<g>
</g>
</svg>
